<svg width="42" height="31" viewBox="0 0 42 31" fill="none" xmlns="http://www.w3.org/2000/svg">
<path d="M40.9555 24.0209L38.6847 8.06252C38.1014 3.95835 34.5808 0.916687 30.4352 0.916687H11.5613C7.41568 0.916687 3.89505 3.95835 3.31175 8.06252L1.04105 24.0209C0.582739 27.2292 3.06177 30.0834 6.29075 30.0834C7.70734 30.0834 9.04059 29.5209 10.0405 28.5209L14.7486 23.8334H27.2479L31.9351 28.5209C32.9351 29.5209 34.2892 30.0834 35.6849 30.0834C38.9347 30.0834 41.4138 27.2292 40.9555 24.0209ZM18.915 13.4167H14.7486V17.5834H12.6654V13.4167H8.49896V11.3334H12.6654V7.16669H14.7486V11.3334H18.915V13.4167ZM27.2479 11.3334C26.1021 11.3334 25.1647 10.3959 25.1647 9.25002C25.1647 8.10419 26.1021 7.16669 27.2479 7.16669C28.3937 7.16669 29.3311 8.10419 29.3311 9.25002C29.3311 10.3959 28.3937 11.3334 27.2479 11.3334ZM31.4143 17.5834C30.2686 17.5834 29.3311 16.6459 29.3311 15.5C29.3311 14.3542 30.2686 13.4167 31.4143 13.4167C32.5601 13.4167 33.4975 14.3542 33.4975 15.5C33.4975 16.6459 32.5601 17.5834 31.4143 17.5834Z" fill="#2A7AE4"/>
</svg>
